<mxfile host="Electron" modified="2023-12-04T07:20:43.056Z" agent="Mozilla/5.0 (Macintosh; Intel Mac OS X 10_15_7) AppleWebKit/537.36 (KHTML, like Gecko) draw.io/21.4.0 Chrome/112.0.5615.204 Electron/24.5.1 Safari/537.36" etag="fZ59OyGtshDdIztIGay9" version="21.4.0" type="device" pages="4">
  <diagram name="Page-1" id="coThTrSw5lpu6wsf5tZ4">
    <mxGraphModel dx="920" dy="1782" grid="1" gridSize="10" guides="1" tooltips="1" connect="1" arrows="1" fold="1" page="1" pageScale="1" pageWidth="827" pageHeight="1169" math="0" shadow="0">
      <root>
        <mxCell id="0" />
        <mxCell id="1" parent="0" />
        <mxCell id="pnbhMd2gwtWuIssW39Jo-1" value="this is line 1" style="rounded=0;whiteSpace=wrap;html=1;fillColor=#ffe6cc;strokeColor=#d79b00;" vertex="1" parent="1">
          <mxGeometry x="614" y="620" width="180" height="70" as="geometry" />
        </mxCell>
        <mxCell id="pnbhMd2gwtWuIssW39Jo-2" value="9ee4e6da&lt;br&gt;(blob object)" style="text;html=1;strokeColor=none;fillColor=none;align=center;verticalAlign=middle;whiteSpace=wrap;rounded=0;fontStyle=1;fontSize=15;" vertex="1" parent="1">
          <mxGeometry x="614" y="690" width="180" height="50" as="geometry" />
        </mxCell>
        <mxCell id="pnbhMd2gwtWuIssW39Jo-6" style="edgeStyle=orthogonalEdgeStyle;rounded=0;orthogonalLoop=1;jettySize=auto;html=1;entryX=0;entryY=0.5;entryDx=0;entryDy=0;" edge="1" parent="1" source="pnbhMd2gwtWuIssW39Jo-3" target="pnbhMd2gwtWuIssW39Jo-1">
          <mxGeometry relative="1" as="geometry" />
        </mxCell>
        <mxCell id="pnbhMd2gwtWuIssW39Jo-3" value="" style="rounded=0;whiteSpace=wrap;html=1;fillColor=#d5e8d4;strokeColor=#82b366;" vertex="1" parent="1">
          <mxGeometry x="324" y="620" width="230" height="70" as="geometry" />
        </mxCell>
        <mxCell id="pnbhMd2gwtWuIssW39Jo-4" value="b2f57eb&lt;br&gt;(tree object)" style="text;html=1;strokeColor=none;fillColor=none;align=center;verticalAlign=middle;whiteSpace=wrap;rounded=0;fontStyle=1;fontSize=15;" vertex="1" parent="1">
          <mxGeometry x="324" y="690" width="230" height="50" as="geometry" />
        </mxCell>
        <mxCell id="pnbhMd2gwtWuIssW39Jo-5" value="100644 blob&amp;nbsp;&amp;nbsp;9ee4e6da myfile.txt" style="text;html=1;strokeColor=none;fillColor=none;align=left;verticalAlign=middle;whiteSpace=wrap;rounded=0;fontStyle=1" vertex="1" parent="1">
          <mxGeometry x="339" y="640" width="200" height="30" as="geometry" />
        </mxCell>
        <mxCell id="pnbhMd2gwtWuIssW39Jo-10" style="edgeStyle=orthogonalEdgeStyle;rounded=0;orthogonalLoop=1;jettySize=auto;html=1;entryX=0;entryY=0.5;entryDx=0;entryDy=0;" edge="1" parent="1" source="pnbhMd2gwtWuIssW39Jo-7" target="pnbhMd2gwtWuIssW39Jo-3">
          <mxGeometry relative="1" as="geometry" />
        </mxCell>
        <mxCell id="pnbhMd2gwtWuIssW39Jo-7" value="" style="rounded=0;whiteSpace=wrap;html=1;fillColor=#dae8fc;strokeColor=#6c8ebf;" vertex="1" parent="1">
          <mxGeometry x="44" y="580" width="230" height="110" as="geometry" />
        </mxCell>
        <mxCell id="pnbhMd2gwtWuIssW39Jo-8" value="2e2481b&lt;br&gt;(commit object)" style="text;html=1;strokeColor=none;fillColor=none;align=center;verticalAlign=middle;whiteSpace=wrap;rounded=0;fontStyle=1;fontSize=15;" vertex="1" parent="1">
          <mxGeometry x="44" y="690" width="230" height="50" as="geometry" />
        </mxCell>
        <mxCell id="pnbhMd2gwtWuIssW39Jo-9" value="tree&amp;nbsp;b2f57eb&lt;br&gt;author Amit&lt;br&gt;committer Amit&lt;br&gt;&lt;br&gt;first commit" style="text;html=1;strokeColor=none;fillColor=none;align=left;verticalAlign=middle;whiteSpace=wrap;rounded=0;fontStyle=1" vertex="1" parent="1">
          <mxGeometry x="59" y="580" width="200" height="100" as="geometry" />
        </mxCell>
        <mxCell id="pnbhMd2gwtWuIssW39Jo-13" value="this is line 1&lt;br&gt;this is line 2" style="rounded=0;whiteSpace=wrap;html=1;fillColor=#ffe6cc;strokeColor=#d79b00;" vertex="1" parent="1">
          <mxGeometry x="624" y="380" width="180" height="70" as="geometry" />
        </mxCell>
        <mxCell id="pnbhMd2gwtWuIssW39Jo-14" value="4afaf620&lt;br&gt;(blob object)" style="text;html=1;strokeColor=none;fillColor=none;align=center;verticalAlign=middle;whiteSpace=wrap;rounded=0;fontStyle=1;fontSize=15;" vertex="1" parent="1">
          <mxGeometry x="624" y="450" width="180" height="50" as="geometry" />
        </mxCell>
        <mxCell id="pnbhMd2gwtWuIssW39Jo-22" style="edgeStyle=orthogonalEdgeStyle;rounded=0;orthogonalLoop=1;jettySize=auto;html=1;entryX=0;entryY=0.5;entryDx=0;entryDy=0;" edge="1" parent="1" source="pnbhMd2gwtWuIssW39Jo-15" target="pnbhMd2gwtWuIssW39Jo-19">
          <mxGeometry relative="1" as="geometry" />
        </mxCell>
        <mxCell id="pnbhMd2gwtWuIssW39Jo-15" value="" style="rounded=0;whiteSpace=wrap;html=1;fillColor=#dae8fc;strokeColor=#6c8ebf;" vertex="1" parent="1">
          <mxGeometry x="44" y="330" width="230" height="130" as="geometry" />
        </mxCell>
        <mxCell id="pnbhMd2gwtWuIssW39Jo-16" value="20beb7a&lt;br&gt;(commit object)" style="text;html=1;strokeColor=none;fillColor=none;align=center;verticalAlign=middle;whiteSpace=wrap;rounded=0;fontStyle=1;fontSize=15;" vertex="1" parent="1">
          <mxGeometry x="44" y="460" width="230" height="50" as="geometry" />
        </mxCell>
        <mxCell id="pnbhMd2gwtWuIssW39Jo-18" style="edgeStyle=orthogonalEdgeStyle;rounded=0;orthogonalLoop=1;jettySize=auto;html=1;entryX=0;entryY=0.5;entryDx=0;entryDy=0;" edge="1" parent="1" target="pnbhMd2gwtWuIssW39Jo-7">
          <mxGeometry relative="1" as="geometry">
            <mxPoint x="44" y="395" as="sourcePoint" />
            <Array as="points">
              <mxPoint x="24" y="395" />
              <mxPoint x="24" y="635" />
            </Array>
          </mxGeometry>
        </mxCell>
        <mxCell id="pnbhMd2gwtWuIssW39Jo-17" value="tree&amp;nbsp;f839e5fa&lt;br&gt;parent&amp;nbsp;2e2481b&lt;br&gt;author Amit&lt;br&gt;committer Amit&lt;br&gt;&lt;br&gt;second commit" style="text;html=1;strokeColor=none;fillColor=none;align=left;verticalAlign=middle;whiteSpace=wrap;rounded=0;fontStyle=1" vertex="1" parent="1">
          <mxGeometry x="59" y="340" width="200" height="110" as="geometry" />
        </mxCell>
        <mxCell id="pnbhMd2gwtWuIssW39Jo-23" style="edgeStyle=orthogonalEdgeStyle;rounded=0;orthogonalLoop=1;jettySize=auto;html=1;entryX=0;entryY=0.5;entryDx=0;entryDy=0;" edge="1" parent="1" source="pnbhMd2gwtWuIssW39Jo-19" target="pnbhMd2gwtWuIssW39Jo-13">
          <mxGeometry relative="1" as="geometry" />
        </mxCell>
        <mxCell id="pnbhMd2gwtWuIssW39Jo-19" value="" style="rounded=0;whiteSpace=wrap;html=1;fillColor=#d5e8d4;strokeColor=#82b366;" vertex="1" parent="1">
          <mxGeometry x="324" y="380" width="230" height="70" as="geometry" />
        </mxCell>
        <mxCell id="pnbhMd2gwtWuIssW39Jo-20" value="f839e5fa&lt;br&gt;(tree object)" style="text;html=1;strokeColor=none;fillColor=none;align=center;verticalAlign=middle;whiteSpace=wrap;rounded=0;fontStyle=1;fontSize=15;" vertex="1" parent="1">
          <mxGeometry x="324" y="450" width="230" height="50" as="geometry" />
        </mxCell>
        <mxCell id="pnbhMd2gwtWuIssW39Jo-21" value="100644 blob&amp;nbsp;&amp;nbsp;4afaf620&amp;nbsp;myfile.txt" style="text;html=1;strokeColor=none;fillColor=none;align=left;verticalAlign=middle;whiteSpace=wrap;rounded=0;fontStyle=1" vertex="1" parent="1">
          <mxGeometry x="339" y="400" width="200" height="30" as="geometry" />
        </mxCell>
        <mxCell id="pnbhMd2gwtWuIssW39Jo-24" value="this is your file&#39;s line 1" style="rounded=0;whiteSpace=wrap;html=1;fillColor=#ffe6cc;strokeColor=#d79b00;" vertex="1" parent="1">
          <mxGeometry x="624" y="150" width="180" height="70" as="geometry" />
        </mxCell>
        <mxCell id="pnbhMd2gwtWuIssW39Jo-25" value="9c0391c&lt;br&gt;(blob object)" style="text;html=1;strokeColor=none;fillColor=none;align=center;verticalAlign=middle;whiteSpace=wrap;rounded=0;fontStyle=1;fontSize=15;" vertex="1" parent="1">
          <mxGeometry x="624" y="220" width="180" height="50" as="geometry" />
        </mxCell>
        <mxCell id="pnbhMd2gwtWuIssW39Jo-26" style="edgeStyle=orthogonalEdgeStyle;rounded=0;orthogonalLoop=1;jettySize=auto;html=1;entryX=0;entryY=0.5;entryDx=0;entryDy=0;" edge="1" parent="1" source="pnbhMd2gwtWuIssW39Jo-27" target="pnbhMd2gwtWuIssW39Jo-31">
          <mxGeometry relative="1" as="geometry" />
        </mxCell>
        <mxCell id="pnbhMd2gwtWuIssW39Jo-35" style="edgeStyle=orthogonalEdgeStyle;rounded=0;orthogonalLoop=1;jettySize=auto;html=1;entryX=-0.001;entryY=0.17;entryDx=0;entryDy=0;entryPerimeter=0;" edge="1" parent="1" source="pnbhMd2gwtWuIssW39Jo-27" target="pnbhMd2gwtWuIssW39Jo-15">
          <mxGeometry relative="1" as="geometry">
            <Array as="points">
              <mxPoint x="24" y="165" />
              <mxPoint x="24" y="352" />
            </Array>
          </mxGeometry>
        </mxCell>
        <mxCell id="pnbhMd2gwtWuIssW39Jo-27" value="" style="rounded=0;whiteSpace=wrap;html=1;fillColor=#dae8fc;strokeColor=#6c8ebf;" vertex="1" parent="1">
          <mxGeometry x="44" y="100" width="230" height="130" as="geometry" />
        </mxCell>
        <mxCell id="pnbhMd2gwtWuIssW39Jo-28" value="a426a6e&lt;br&gt;(commit object)" style="text;html=1;strokeColor=none;fillColor=none;align=center;verticalAlign=middle;whiteSpace=wrap;rounded=0;fontStyle=1;fontSize=15;" vertex="1" parent="1">
          <mxGeometry x="44" y="230" width="230" height="50" as="geometry" />
        </mxCell>
        <mxCell id="pnbhMd2gwtWuIssW39Jo-29" value="tree&amp;nbsp;30b9b95&lt;br&gt;parent&amp;nbsp;20beb7a&lt;br&gt;author Amit&lt;br&gt;committer Amit&lt;br&gt;&lt;br&gt;third commit" style="text;html=1;strokeColor=none;fillColor=none;align=left;verticalAlign=middle;whiteSpace=wrap;rounded=0;fontStyle=1" vertex="1" parent="1">
          <mxGeometry x="59" y="110" width="200" height="110" as="geometry" />
        </mxCell>
        <mxCell id="pnbhMd2gwtWuIssW39Jo-30" style="edgeStyle=orthogonalEdgeStyle;rounded=0;orthogonalLoop=1;jettySize=auto;html=1;entryX=0;entryY=0.5;entryDx=0;entryDy=0;" edge="1" parent="1" source="pnbhMd2gwtWuIssW39Jo-31" target="pnbhMd2gwtWuIssW39Jo-24">
          <mxGeometry relative="1" as="geometry" />
        </mxCell>
        <mxCell id="pnbhMd2gwtWuIssW39Jo-36" style="edgeStyle=orthogonalEdgeStyle;rounded=0;orthogonalLoop=1;jettySize=auto;html=1;entryX=0;entryY=0.25;entryDx=0;entryDy=0;" edge="1" parent="1" source="pnbhMd2gwtWuIssW39Jo-31" target="pnbhMd2gwtWuIssW39Jo-13">
          <mxGeometry relative="1" as="geometry" />
        </mxCell>
        <mxCell id="pnbhMd2gwtWuIssW39Jo-31" value="" style="rounded=0;whiteSpace=wrap;html=1;fillColor=#d5e8d4;strokeColor=#82b366;" vertex="1" parent="1">
          <mxGeometry x="324" y="150" width="230" height="70" as="geometry" />
        </mxCell>
        <mxCell id="pnbhMd2gwtWuIssW39Jo-32" value="30b9b95&lt;br&gt;(tree object)" style="text;html=1;strokeColor=none;fillColor=none;align=center;verticalAlign=middle;whiteSpace=wrap;rounded=0;fontStyle=1;fontSize=15;" vertex="1" parent="1">
          <mxGeometry x="324" y="220" width="230" height="50" as="geometry" />
        </mxCell>
        <mxCell id="pnbhMd2gwtWuIssW39Jo-33" value="100644 blob&amp;nbsp;&amp;nbsp;4afaf620&amp;nbsp;myfile.txt&lt;br&gt;100644 blob&amp;nbsp;&amp;nbsp;9c0391c yourfile.txt" style="text;html=1;strokeColor=none;fillColor=none;align=left;verticalAlign=middle;whiteSpace=wrap;rounded=0;fontStyle=1" vertex="1" parent="1">
          <mxGeometry x="339" y="170" width="200" height="30" as="geometry" />
        </mxCell>
        <mxCell id="pnbhMd2gwtWuIssW39Jo-37" value="this is your file&#39;s line 1&#xa;this is your file&#39;s line 2" style="rounded=0;whiteSpace=wrap;html=1;fillColor=#ffe6cc;strokeColor=#d79b00;" vertex="1" parent="1">
          <mxGeometry x="624" y="-180" width="180" height="70" as="geometry" />
        </mxCell>
        <mxCell id="pnbhMd2gwtWuIssW39Jo-38" value="91e7739&lt;br&gt;(blob object)" style="text;html=1;strokeColor=none;fillColor=none;align=center;verticalAlign=middle;whiteSpace=wrap;rounded=0;fontStyle=1;fontSize=15;" vertex="1" parent="1">
          <mxGeometry x="624" y="-110" width="180" height="50" as="geometry" />
        </mxCell>
        <mxCell id="pnbhMd2gwtWuIssW39Jo-39" style="edgeStyle=orthogonalEdgeStyle;rounded=0;orthogonalLoop=1;jettySize=auto;html=1;entryX=0;entryY=0.5;entryDx=0;entryDy=0;" edge="1" parent="1" source="pnbhMd2gwtWuIssW39Jo-40" target="pnbhMd2gwtWuIssW39Jo-44">
          <mxGeometry relative="1" as="geometry" />
        </mxCell>
        <mxCell id="pnbhMd2gwtWuIssW39Jo-47" style="edgeStyle=orthogonalEdgeStyle;rounded=0;orthogonalLoop=1;jettySize=auto;html=1;entryX=-0.005;entryY=0.113;entryDx=0;entryDy=0;entryPerimeter=0;" edge="1" parent="1" source="pnbhMd2gwtWuIssW39Jo-40" target="pnbhMd2gwtWuIssW39Jo-27">
          <mxGeometry relative="1" as="geometry">
            <Array as="points">
              <mxPoint x="20" y="-35" />
              <mxPoint x="20" y="115" />
            </Array>
          </mxGeometry>
        </mxCell>
        <mxCell id="pnbhMd2gwtWuIssW39Jo-40" value="" style="rounded=0;whiteSpace=wrap;html=1;fillColor=#dae8fc;strokeColor=#6c8ebf;" vertex="1" parent="1">
          <mxGeometry x="44" y="-130" width="230" height="130" as="geometry" />
        </mxCell>
        <mxCell id="pnbhMd2gwtWuIssW39Jo-41" value="b1dd2c9&lt;br&gt;(commit object)" style="text;html=1;strokeColor=none;fillColor=none;align=center;verticalAlign=middle;whiteSpace=wrap;rounded=0;fontStyle=1;fontSize=15;" vertex="1" parent="1">
          <mxGeometry x="44" width="230" height="50" as="geometry" />
        </mxCell>
        <mxCell id="pnbhMd2gwtWuIssW39Jo-42" value="tree&amp;nbsp;30b9b95&lt;br&gt;parent&amp;nbsp;a426a6e&lt;br&gt;author Amit&lt;br&gt;committer Amit&lt;br&gt;&lt;br&gt;forth commit" style="text;html=1;strokeColor=none;fillColor=none;align=left;verticalAlign=middle;whiteSpace=wrap;rounded=0;fontStyle=1" vertex="1" parent="1">
          <mxGeometry x="59" y="-120" width="200" height="110" as="geometry" />
        </mxCell>
        <mxCell id="pnbhMd2gwtWuIssW39Jo-43" style="edgeStyle=orthogonalEdgeStyle;rounded=0;orthogonalLoop=1;jettySize=auto;html=1;entryX=0;entryY=0.5;entryDx=0;entryDy=0;" edge="1" parent="1" source="pnbhMd2gwtWuIssW39Jo-44" target="pnbhMd2gwtWuIssW39Jo-37">
          <mxGeometry relative="1" as="geometry" />
        </mxCell>
        <mxCell id="pnbhMd2gwtWuIssW39Jo-50" style="edgeStyle=orthogonalEdgeStyle;rounded=0;orthogonalLoop=1;jettySize=auto;html=1;" edge="1" parent="1" source="pnbhMd2gwtWuIssW39Jo-44" target="pnbhMd2gwtWuIssW39Jo-48">
          <mxGeometry relative="1" as="geometry" />
        </mxCell>
        <mxCell id="pnbhMd2gwtWuIssW39Jo-44" value="" style="rounded=0;whiteSpace=wrap;html=1;fillColor=#d5e8d4;strokeColor=#82b366;" vertex="1" parent="1">
          <mxGeometry x="324" y="-80" width="230" height="70" as="geometry" />
        </mxCell>
        <mxCell id="pnbhMd2gwtWuIssW39Jo-45" value="8f45018&lt;br&gt;(tree object)" style="text;html=1;strokeColor=none;fillColor=none;align=center;verticalAlign=middle;whiteSpace=wrap;rounded=0;fontStyle=1;fontSize=15;" vertex="1" parent="1">
          <mxGeometry x="324" y="-10" width="230" height="50" as="geometry" />
        </mxCell>
        <mxCell id="pnbhMd2gwtWuIssW39Jo-46" value="100644 blob&amp;nbsp;&amp;nbsp;08db324&amp;nbsp;myfile.txt&lt;br&gt;100644 blob&amp;nbsp;&amp;nbsp;91e7739 yourfile.txt" style="text;html=1;strokeColor=none;fillColor=none;align=left;verticalAlign=middle;whiteSpace=wrap;rounded=0;fontStyle=1" vertex="1" parent="1">
          <mxGeometry x="339" y="-60" width="200" height="30" as="geometry" />
        </mxCell>
        <mxCell id="pnbhMd2gwtWuIssW39Jo-48" value="this is a line 1&#xa;this is a line 2&#xa;this is a line 3" style="rounded=0;whiteSpace=wrap;html=1;fillColor=#ffe6cc;strokeColor=#d79b00;" vertex="1" parent="1">
          <mxGeometry x="624" y="-30" width="180" height="70" as="geometry" />
        </mxCell>
        <mxCell id="pnbhMd2gwtWuIssW39Jo-49" value="08db324&lt;br&gt;(blob object)" style="text;html=1;strokeColor=none;fillColor=none;align=center;verticalAlign=middle;whiteSpace=wrap;rounded=0;fontStyle=1;fontSize=15;" vertex="1" parent="1">
          <mxGeometry x="624" y="40" width="180" height="50" as="geometry" />
        </mxCell>
      </root>
    </mxGraphModel>
  </diagram>
  <diagram id="4NC4TYYAVocHx3Pc_PC2" name="Page-2">
    <mxGraphModel dx="710" dy="473" grid="1" gridSize="10" guides="1" tooltips="1" connect="1" arrows="1" fold="1" page="1" pageScale="1" pageWidth="827" pageHeight="1169" math="0" shadow="0">
      <root>
        <mxCell id="0" />
        <mxCell id="1" parent="0" />
        <mxCell id="L2AmsiR4ax1B5Pl_ylXH-1" value="(main or master)&lt;br&gt;Code Repository" style="rounded=0;whiteSpace=wrap;html=1;fontStyle=1;fontSize=16;" vertex="1" parent="1">
          <mxGeometry x="287.5" y="500" width="246" height="70" as="geometry" />
        </mxCell>
        <mxCell id="L2AmsiR4ax1B5Pl_ylXH-22" style="edgeStyle=orthogonalEdgeStyle;rounded=0;orthogonalLoop=1;jettySize=auto;html=1;entryX=0.5;entryY=1;entryDx=0;entryDy=0;" edge="1" parent="1" source="L2AmsiR4ax1B5Pl_ylXH-2" target="L2AmsiR4ax1B5Pl_ylXH-8">
          <mxGeometry relative="1" as="geometry" />
        </mxCell>
        <mxCell id="L2AmsiR4ax1B5Pl_ylXH-2" value="dev1" style="shape=umlActor;verticalLabelPosition=bottom;verticalAlign=top;html=1;outlineConnect=0;" vertex="1" parent="1">
          <mxGeometry x="143.5" y="480" width="30" height="60" as="geometry" />
        </mxCell>
        <mxCell id="L2AmsiR4ax1B5Pl_ylXH-4" value="dev2" style="shape=umlActor;verticalLabelPosition=bottom;verticalAlign=top;html=1;outlineConnect=0;" vertex="1" parent="1">
          <mxGeometry x="653.5" y="485" width="30" height="60" as="geometry" />
        </mxCell>
        <mxCell id="L2AmsiR4ax1B5Pl_ylXH-16" style="edgeStyle=orthogonalEdgeStyle;rounded=0;orthogonalLoop=1;jettySize=auto;html=1;entryX=0.5;entryY=1;entryDx=0;entryDy=0;" edge="1" parent="1" source="L2AmsiR4ax1B5Pl_ylXH-8" target="L2AmsiR4ax1B5Pl_ylXH-15">
          <mxGeometry relative="1" as="geometry" />
        </mxCell>
        <mxCell id="L2AmsiR4ax1B5Pl_ylXH-8" value="dev1" style="rounded=0;whiteSpace=wrap;html=1;" vertex="1" parent="1">
          <mxGeometry x="111" y="400" width="95" height="40" as="geometry" />
        </mxCell>
        <mxCell id="L2AmsiR4ax1B5Pl_ylXH-28" style="edgeStyle=orthogonalEdgeStyle;rounded=0;orthogonalLoop=1;jettySize=auto;html=1;entryX=0.5;entryY=1;entryDx=0;entryDy=0;" edge="1" parent="1" source="L2AmsiR4ax1B5Pl_ylXH-9" target="L2AmsiR4ax1B5Pl_ylXH-17">
          <mxGeometry relative="1" as="geometry" />
        </mxCell>
        <mxCell id="L2AmsiR4ax1B5Pl_ylXH-9" value="dev2" style="rounded=0;whiteSpace=wrap;html=1;" vertex="1" parent="1">
          <mxGeometry x="621" y="400" width="95" height="40" as="geometry" />
        </mxCell>
        <mxCell id="L2AmsiR4ax1B5Pl_ylXH-11" style="edgeStyle=orthogonalEdgeStyle;rounded=0;orthogonalLoop=1;jettySize=auto;html=1;entryX=1;entryY=0.5;entryDx=0;entryDy=0;" edge="1" parent="1" source="L2AmsiR4ax1B5Pl_ylXH-10" target="L2AmsiR4ax1B5Pl_ylXH-8">
          <mxGeometry relative="1" as="geometry" />
        </mxCell>
        <mxCell id="L2AmsiR4ax1B5Pl_ylXH-12" style="edgeStyle=orthogonalEdgeStyle;rounded=0;orthogonalLoop=1;jettySize=auto;html=1;entryX=0;entryY=0.5;entryDx=0;entryDy=0;" edge="1" parent="1" source="L2AmsiR4ax1B5Pl_ylXH-10" target="L2AmsiR4ax1B5Pl_ylXH-9">
          <mxGeometry relative="1" as="geometry" />
        </mxCell>
        <mxCell id="L2AmsiR4ax1B5Pl_ylXH-10" value="1. latest code&lt;br style=&quot;font-size: 14px;&quot;&gt;2. bug free&lt;br style=&quot;font-size: 14px;&quot;&gt;3. crash free&lt;br style=&quot;font-size: 14px;&quot;&gt;4. well tested" style="rounded=0;whiteSpace=wrap;html=1;fontStyle=1;fontSize=14;" vertex="1" parent="1">
          <mxGeometry x="287.5" y="400" width="246" height="100" as="geometry" />
        </mxCell>
        <mxCell id="L2AmsiR4ax1B5Pl_ylXH-20" style="edgeStyle=orthogonalEdgeStyle;rounded=0;orthogonalLoop=1;jettySize=auto;html=1;" edge="1" parent="1" source="L2AmsiR4ax1B5Pl_ylXH-15" target="L2AmsiR4ax1B5Pl_ylXH-19">
          <mxGeometry relative="1" as="geometry" />
        </mxCell>
        <mxCell id="L2AmsiR4ax1B5Pl_ylXH-21" style="edgeStyle=orthogonalEdgeStyle;rounded=0;orthogonalLoop=1;jettySize=auto;html=1;entryX=0.152;entryY=0.008;entryDx=0;entryDy=0;entryPerimeter=0;" edge="1" parent="1" source="L2AmsiR4ax1B5Pl_ylXH-15" target="L2AmsiR4ax1B5Pl_ylXH-10">
          <mxGeometry relative="1" as="geometry" />
        </mxCell>
        <mxCell id="L2AmsiR4ax1B5Pl_ylXH-15" value="dev1 work" style="rounded=0;whiteSpace=wrap;html=1;" vertex="1" parent="1">
          <mxGeometry x="113" y="330" width="92.5" height="30" as="geometry" />
        </mxCell>
        <mxCell id="L2AmsiR4ax1B5Pl_ylXH-25" style="edgeStyle=orthogonalEdgeStyle;rounded=0;orthogonalLoop=1;jettySize=auto;html=1;" edge="1" parent="1" source="L2AmsiR4ax1B5Pl_ylXH-17">
          <mxGeometry relative="1" as="geometry">
            <mxPoint x="667.25" y="300" as="targetPoint" />
          </mxGeometry>
        </mxCell>
        <mxCell id="L2AmsiR4ax1B5Pl_ylXH-26" style="edgeStyle=orthogonalEdgeStyle;rounded=0;orthogonalLoop=1;jettySize=auto;html=1;entryX=0.846;entryY=-0.041;entryDx=0;entryDy=0;entryPerimeter=0;" edge="1" parent="1" source="L2AmsiR4ax1B5Pl_ylXH-17" target="L2AmsiR4ax1B5Pl_ylXH-10">
          <mxGeometry relative="1" as="geometry" />
        </mxCell>
        <mxCell id="L2AmsiR4ax1B5Pl_ylXH-17" value="dev2 work" style="rounded=0;whiteSpace=wrap;html=1;" vertex="1" parent="1">
          <mxGeometry x="622" y="330" width="92.5" height="30" as="geometry" />
        </mxCell>
        <mxCell id="L2AmsiR4ax1B5Pl_ylXH-19" value="tester 1" style="shape=umlActor;verticalLabelPosition=bottom;verticalAlign=top;html=1;outlineConnect=0;" vertex="1" parent="1">
          <mxGeometry x="144.25" y="210" width="30" height="60" as="geometry" />
        </mxCell>
        <mxCell id="L2AmsiR4ax1B5Pl_ylXH-24" value="tester 2" style="shape=umlActor;verticalLabelPosition=bottom;verticalAlign=top;html=1;outlineConnect=0;" vertex="1" parent="1">
          <mxGeometry x="652.25" y="210" width="30" height="60" as="geometry" />
        </mxCell>
      </root>
    </mxGraphModel>
  </diagram>
  <diagram id="sOzAp4XA52QqtPs2x9fn" name="Page-3">
    <mxGraphModel dx="1242" dy="1997" grid="1" gridSize="10" guides="1" tooltips="1" connect="1" arrows="1" fold="1" page="1" pageScale="1" pageWidth="827" pageHeight="1169" math="0" shadow="0">
      <root>
        <mxCell id="0" />
        <mxCell id="1" parent="0" />
        <mxCell id="is7U0yohfw3_wu6Jb7FG-13" style="edgeStyle=orthogonalEdgeStyle;rounded=0;orthogonalLoop=1;jettySize=auto;html=1;entryX=0.53;entryY=0.966;entryDx=0;entryDy=0;entryPerimeter=0;" edge="1" parent="1" source="is7U0yohfw3_wu6Jb7FG-1" target="is7U0yohfw3_wu6Jb7FG-9">
          <mxGeometry relative="1" as="geometry" />
        </mxCell>
        <mxCell id="g0VrQU1K6g0YY9lRAYvX-2" style="edgeStyle=orthogonalEdgeStyle;rounded=0;orthogonalLoop=1;jettySize=auto;html=1;entryX=0;entryY=0.5;entryDx=0;entryDy=0;" edge="1" parent="1" source="is7U0yohfw3_wu6Jb7FG-1" target="g0VrQU1K6g0YY9lRAYvX-1">
          <mxGeometry relative="1" as="geometry" />
        </mxCell>
        <mxCell id="is7U0yohfw3_wu6Jb7FG-1" value="1e01766" style="rounded=0;whiteSpace=wrap;html=1;fillColor=#dae8fc;strokeColor=#6c8ebf;fontStyle=1;fontSize=15;" vertex="1" parent="1">
          <mxGeometry x="385" y="717" width="156" height="60" as="geometry" />
        </mxCell>
        <mxCell id="QD5NwU34mhIFS8gVQGoK-53" style="edgeStyle=orthogonalEdgeStyle;rounded=0;orthogonalLoop=1;jettySize=auto;html=1;" edge="1" parent="1" source="is7U0yohfw3_wu6Jb7FG-2" target="QD5NwU34mhIFS8gVQGoK-50">
          <mxGeometry relative="1" as="geometry" />
        </mxCell>
        <mxCell id="is7U0yohfw3_wu6Jb7FG-2" value="main" style="rounded=0;whiteSpace=wrap;html=1;fillColor=#1ba1e2;strokeColor=#006EAF;fontStyle=1;fontColor=#ffffff;" vertex="1" parent="1">
          <mxGeometry x="240" y="-100" width="80" height="40" as="geometry" />
        </mxCell>
        <mxCell id="QD5NwU34mhIFS8gVQGoK-60" style="edgeStyle=orthogonalEdgeStyle;rounded=0;orthogonalLoop=1;jettySize=auto;html=1;" edge="1" parent="1" source="is7U0yohfw3_wu6Jb7FG-6" target="is7U0yohfw3_wu6Jb7FG-2">
          <mxGeometry relative="1" as="geometry" />
        </mxCell>
        <mxCell id="is7U0yohfw3_wu6Jb7FG-6" value="HEAD" style="rounded=0;whiteSpace=wrap;html=1;fillColor=#e1d5e7;strokeColor=#9673a6;fontStyle=1" vertex="1" parent="1">
          <mxGeometry x="110" y="-100" width="80" height="40" as="geometry" />
        </mxCell>
        <mxCell id="is7U0yohfw3_wu6Jb7FG-16" style="edgeStyle=orthogonalEdgeStyle;rounded=0;orthogonalLoop=1;jettySize=auto;html=1;entryX=0.5;entryY=1;entryDx=0;entryDy=0;" edge="1" parent="1" source="is7U0yohfw3_wu6Jb7FG-9" target="is7U0yohfw3_wu6Jb7FG-15">
          <mxGeometry relative="1" as="geometry" />
        </mxCell>
        <mxCell id="g0VrQU1K6g0YY9lRAYvX-8" style="edgeStyle=orthogonalEdgeStyle;rounded=0;orthogonalLoop=1;jettySize=auto;html=1;" edge="1" parent="1" source="is7U0yohfw3_wu6Jb7FG-9" target="g0VrQU1K6g0YY9lRAYvX-7">
          <mxGeometry relative="1" as="geometry" />
        </mxCell>
        <mxCell id="is7U0yohfw3_wu6Jb7FG-9" value="dcf0d16" style="rounded=0;whiteSpace=wrap;html=1;fillColor=#dae8fc;strokeColor=#6c8ebf;fontStyle=1;fontSize=15;" vertex="1" parent="1">
          <mxGeometry x="381" y="620" width="156" height="60" as="geometry" />
        </mxCell>
        <mxCell id="g0VrQU1K6g0YY9lRAYvX-6" style="edgeStyle=orthogonalEdgeStyle;rounded=0;orthogonalLoop=1;jettySize=auto;html=1;entryX=0;entryY=0.5;entryDx=0;entryDy=0;" edge="1" parent="1" source="is7U0yohfw3_wu6Jb7FG-15" target="g0VrQU1K6g0YY9lRAYvX-5">
          <mxGeometry relative="1" as="geometry" />
        </mxCell>
        <mxCell id="QD5NwU34mhIFS8gVQGoK-19" style="edgeStyle=orthogonalEdgeStyle;rounded=0;orthogonalLoop=1;jettySize=auto;html=1;" edge="1" parent="1" source="is7U0yohfw3_wu6Jb7FG-15" target="QD5NwU34mhIFS8gVQGoK-13">
          <mxGeometry relative="1" as="geometry" />
        </mxCell>
        <mxCell id="is7U0yohfw3_wu6Jb7FG-15" value="39a6d8f" style="rounded=0;whiteSpace=wrap;html=1;fillColor=#dae8fc;strokeColor=#6c8ebf;fontStyle=1;fontSize=15;" vertex="1" parent="1">
          <mxGeometry x="381" y="520" width="156" height="60" as="geometry" />
        </mxCell>
        <mxCell id="g0VrQU1K6g0YY9lRAYvX-1" value="this is a line 1" style="rounded=0;whiteSpace=wrap;html=1;fillColor=#fff2cc;strokeColor=#d6b656;fontStyle=1;fontSize=12;" vertex="1" parent="1">
          <mxGeometry x="849" y="717" width="100" height="60" as="geometry" />
        </mxCell>
        <mxCell id="g0VrQU1K6g0YY9lRAYvX-5" value="this is a line 1&#xa;this is a line 2&#xa;this is a line 3&#xa;this is a line 4&#xa;this is a line 5&#xa;this is a line 6" style="rounded=0;whiteSpace=wrap;html=1;fillColor=#fff2cc;strokeColor=#d6b656;fontStyle=1;fontSize=10;" vertex="1" parent="1">
          <mxGeometry x="850" y="505.5" width="103" height="90" as="geometry" />
        </mxCell>
        <mxCell id="g0VrQU1K6g0YY9lRAYvX-7" value="this is a line 1&lt;br&gt;this is a line 2&lt;br&gt;this is a line 3&lt;br&gt;this is a line 4=" style="rounded=0;whiteSpace=wrap;html=1;fillColor=#fff2cc;strokeColor=#d6b656;fontStyle=1;fontSize=10;" vertex="1" parent="1">
          <mxGeometry x="850" y="623" width="103" height="55" as="geometry" />
        </mxCell>
        <mxCell id="g0VrQU1K6g0YY9lRAYvX-10" value="" style="rounded=0;whiteSpace=wrap;html=1;fillColor=#d5e8d4;strokeColor=#82b366;" vertex="1" parent="1">
          <mxGeometry x="710" y="530.5" width="83" height="40" as="geometry" />
        </mxCell>
        <mxCell id="QD5NwU34mhIFS8gVQGoK-1" value="" style="rounded=0;whiteSpace=wrap;html=1;fillColor=#d5e8d4;strokeColor=#82b366;" vertex="1" parent="1">
          <mxGeometry x="710" y="630.5" width="83" height="40" as="geometry" />
        </mxCell>
        <mxCell id="QD5NwU34mhIFS8gVQGoK-2" value="" style="rounded=0;whiteSpace=wrap;html=1;fillColor=#d5e8d4;strokeColor=#82b366;" vertex="1" parent="1">
          <mxGeometry x="709" y="727" width="83" height="40" as="geometry" />
        </mxCell>
        <mxCell id="QD5NwU34mhIFS8gVQGoK-16" style="edgeStyle=orthogonalEdgeStyle;rounded=0;orthogonalLoop=1;jettySize=auto;html=1;entryX=0;entryY=0.5;entryDx=0;entryDy=0;" edge="1" parent="1" source="QD5NwU34mhIFS8gVQGoK-13" target="QD5NwU34mhIFS8gVQGoK-15">
          <mxGeometry relative="1" as="geometry" />
        </mxCell>
        <mxCell id="QD5NwU34mhIFS8gVQGoK-26" style="edgeStyle=orthogonalEdgeStyle;rounded=0;orthogonalLoop=1;jettySize=auto;html=1;" edge="1" parent="1" source="QD5NwU34mhIFS8gVQGoK-13" target="QD5NwU34mhIFS8gVQGoK-20">
          <mxGeometry relative="1" as="geometry" />
        </mxCell>
        <mxCell id="QD5NwU34mhIFS8gVQGoK-13" value="d822a09" style="rounded=0;whiteSpace=wrap;html=1;fillColor=#dae8fc;strokeColor=#6c8ebf;fontStyle=1;fontSize=15;" vertex="1" parent="1">
          <mxGeometry x="381" y="410" width="156" height="60" as="geometry" />
        </mxCell>
        <mxCell id="QD5NwU34mhIFS8gVQGoK-14" value="this is a line 1&lt;br&gt;this is a line 2&lt;br&gt;this is a line 3&lt;br&gt;this is a line 4&lt;br&gt;this is a line 5" style="rounded=0;whiteSpace=wrap;html=1;fillColor=#fff2cc;strokeColor=#d6b656;fontStyle=1;fontSize=10;" vertex="1" parent="1">
          <mxGeometry x="850" y="402.5" width="103" height="75" as="geometry" />
        </mxCell>
        <mxCell id="QD5NwU34mhIFS8gVQGoK-17" style="edgeStyle=orthogonalEdgeStyle;rounded=0;orthogonalLoop=1;jettySize=auto;html=1;" edge="1" parent="1" source="QD5NwU34mhIFS8gVQGoK-15" target="QD5NwU34mhIFS8gVQGoK-14">
          <mxGeometry relative="1" as="geometry" />
        </mxCell>
        <mxCell id="QD5NwU34mhIFS8gVQGoK-15" value="" style="rounded=0;whiteSpace=wrap;html=1;fillColor=#d5e8d4;strokeColor=#82b366;" vertex="1" parent="1">
          <mxGeometry x="710" y="420" width="83" height="40" as="geometry" />
        </mxCell>
        <mxCell id="QD5NwU34mhIFS8gVQGoK-24" style="edgeStyle=orthogonalEdgeStyle;rounded=0;orthogonalLoop=1;jettySize=auto;html=1;" edge="1" parent="1" source="QD5NwU34mhIFS8gVQGoK-20" target="QD5NwU34mhIFS8gVQGoK-23">
          <mxGeometry relative="1" as="geometry" />
        </mxCell>
        <mxCell id="QD5NwU34mhIFS8gVQGoK-38" style="edgeStyle=orthogonalEdgeStyle;rounded=0;orthogonalLoop=1;jettySize=auto;html=1;entryX=0.5;entryY=1;entryDx=0;entryDy=0;" edge="1" parent="1" source="QD5NwU34mhIFS8gVQGoK-20" target="QD5NwU34mhIFS8gVQGoK-33">
          <mxGeometry relative="1" as="geometry" />
        </mxCell>
        <mxCell id="QD5NwU34mhIFS8gVQGoK-42" style="edgeStyle=orthogonalEdgeStyle;rounded=0;orthogonalLoop=1;jettySize=auto;html=1;" edge="1" parent="1" source="QD5NwU34mhIFS8gVQGoK-20" target="QD5NwU34mhIFS8gVQGoK-41">
          <mxGeometry relative="1" as="geometry" />
        </mxCell>
        <mxCell id="QD5NwU34mhIFS8gVQGoK-20" value="a2f4b6a" style="rounded=0;whiteSpace=wrap;html=1;fillColor=#dae8fc;strokeColor=#6c8ebf;fontStyle=1;fontSize=15;" vertex="1" parent="1">
          <mxGeometry x="381" y="320" width="156" height="60" as="geometry" />
        </mxCell>
        <mxCell id="QD5NwU34mhIFS8gVQGoK-21" value="this is a line 1&lt;br&gt;this is a line 2&lt;br&gt;this is a line 3&lt;br&gt;this is a line 4" style="rounded=0;whiteSpace=wrap;html=1;fillColor=#fff2cc;strokeColor=#d6b656;fontStyle=1;fontSize=10;" vertex="1" parent="1">
          <mxGeometry x="850" y="312.5" width="103" height="75" as="geometry" />
        </mxCell>
        <mxCell id="QD5NwU34mhIFS8gVQGoK-22" style="edgeStyle=orthogonalEdgeStyle;rounded=0;orthogonalLoop=1;jettySize=auto;html=1;" edge="1" parent="1" source="QD5NwU34mhIFS8gVQGoK-23" target="QD5NwU34mhIFS8gVQGoK-21">
          <mxGeometry relative="1" as="geometry" />
        </mxCell>
        <mxCell id="QD5NwU34mhIFS8gVQGoK-23" value="" style="rounded=0;whiteSpace=wrap;html=1;fillColor=#d5e8d4;strokeColor=#82b366;" vertex="1" parent="1">
          <mxGeometry x="710" y="330" width="83" height="40" as="geometry" />
        </mxCell>
        <mxCell id="QD5NwU34mhIFS8gVQGoK-39" style="edgeStyle=orthogonalEdgeStyle;rounded=0;orthogonalLoop=1;jettySize=auto;html=1;entryX=0;entryY=0.5;entryDx=0;entryDy=0;" edge="1" parent="1" source="QD5NwU34mhIFS8gVQGoK-30" target="QD5NwU34mhIFS8gVQGoK-33">
          <mxGeometry relative="1" as="geometry" />
        </mxCell>
        <mxCell id="QD5NwU34mhIFS8gVQGoK-30" value="dev3" style="rounded=0;whiteSpace=wrap;html=1;fillColor=#1ba1e2;strokeColor=#006EAF;fontStyle=1;fontColor=#ffffff;" vertex="1" parent="1">
          <mxGeometry x="240" y="170" width="80" height="40" as="geometry" />
        </mxCell>
        <mxCell id="QD5NwU34mhIFS8gVQGoK-37" style="edgeStyle=orthogonalEdgeStyle;rounded=0;orthogonalLoop=1;jettySize=auto;html=1;" edge="1" parent="1" source="QD5NwU34mhIFS8gVQGoK-33" target="QD5NwU34mhIFS8gVQGoK-36">
          <mxGeometry relative="1" as="geometry" />
        </mxCell>
        <mxCell id="QD5NwU34mhIFS8gVQGoK-52" style="edgeStyle=orthogonalEdgeStyle;rounded=0;orthogonalLoop=1;jettySize=auto;html=1;" edge="1" parent="1" source="QD5NwU34mhIFS8gVQGoK-33" target="QD5NwU34mhIFS8gVQGoK-50">
          <mxGeometry relative="1" as="geometry">
            <Array as="points">
              <mxPoint x="598" y="-10" />
              <mxPoint x="459" y="-10" />
            </Array>
          </mxGeometry>
        </mxCell>
        <mxCell id="QD5NwU34mhIFS8gVQGoK-33" value="ad0b84d" style="rounded=0;whiteSpace=wrap;html=1;fillColor=#dae8fc;strokeColor=#6c8ebf;fontStyle=1;fontSize=15;" vertex="1" parent="1">
          <mxGeometry x="520" y="160" width="156" height="60" as="geometry" />
        </mxCell>
        <mxCell id="QD5NwU34mhIFS8gVQGoK-34" value="this is a line 1&lt;br&gt;this is a line 2&lt;br&gt;this is a line 3&lt;br&gt;this is a line 4&lt;br&gt;this is a line 5" style="rounded=0;whiteSpace=wrap;html=1;fillColor=#fff2cc;strokeColor=#d6b656;fontStyle=1;fontSize=10;" vertex="1" parent="1">
          <mxGeometry x="890" y="152.5" width="103" height="75" as="geometry" />
        </mxCell>
        <mxCell id="QD5NwU34mhIFS8gVQGoK-35" style="edgeStyle=orthogonalEdgeStyle;rounded=0;orthogonalLoop=1;jettySize=auto;html=1;" edge="1" parent="1" source="QD5NwU34mhIFS8gVQGoK-36" target="QD5NwU34mhIFS8gVQGoK-34">
          <mxGeometry relative="1" as="geometry" />
        </mxCell>
        <mxCell id="QD5NwU34mhIFS8gVQGoK-36" value="" style="rounded=0;whiteSpace=wrap;html=1;fillColor=#d5e8d4;strokeColor=#82b366;" vertex="1" parent="1">
          <mxGeometry x="750" y="170" width="83" height="40" as="geometry" />
        </mxCell>
        <mxCell id="QD5NwU34mhIFS8gVQGoK-46" style="edgeStyle=orthogonalEdgeStyle;rounded=0;orthogonalLoop=1;jettySize=auto;html=1;" edge="1" parent="1" source="QD5NwU34mhIFS8gVQGoK-41" target="QD5NwU34mhIFS8gVQGoK-45">
          <mxGeometry relative="1" as="geometry" />
        </mxCell>
        <mxCell id="QD5NwU34mhIFS8gVQGoK-51" style="edgeStyle=orthogonalEdgeStyle;rounded=0;orthogonalLoop=1;jettySize=auto;html=1;" edge="1" parent="1" source="QD5NwU34mhIFS8gVQGoK-41" target="QD5NwU34mhIFS8gVQGoK-50">
          <mxGeometry relative="1" as="geometry" />
        </mxCell>
        <mxCell id="QD5NwU34mhIFS8gVQGoK-41" value="55990c9" style="rounded=0;whiteSpace=wrap;html=1;fillColor=#dae8fc;strokeColor=#6c8ebf;fontStyle=1;fontSize=15;" vertex="1" parent="1">
          <mxGeometry x="381" y="30" width="156" height="60" as="geometry" />
        </mxCell>
        <mxCell id="QD5NwU34mhIFS8gVQGoK-44" value="this is a line 1&lt;br&gt;this is a line 2&lt;br&gt;this is a line 3&lt;br&gt;this is a line 4" style="rounded=0;whiteSpace=wrap;html=1;fillColor=#fff2cc;strokeColor=#d6b656;fontStyle=1;fontSize=10;" vertex="1" parent="1">
          <mxGeometry x="900" y="-10" width="103" height="57.5" as="geometry" />
        </mxCell>
        <mxCell id="QD5NwU34mhIFS8gVQGoK-47" style="edgeStyle=orthogonalEdgeStyle;rounded=0;orthogonalLoop=1;jettySize=auto;html=1;entryX=0;entryY=0.5;entryDx=0;entryDy=0;" edge="1" parent="1" source="QD5NwU34mhIFS8gVQGoK-45" target="QD5NwU34mhIFS8gVQGoK-44">
          <mxGeometry relative="1" as="geometry" />
        </mxCell>
        <mxCell id="QD5NwU34mhIFS8gVQGoK-49" style="edgeStyle=orthogonalEdgeStyle;rounded=0;orthogonalLoop=1;jettySize=auto;html=1;" edge="1" parent="1" source="QD5NwU34mhIFS8gVQGoK-45" target="QD5NwU34mhIFS8gVQGoK-48">
          <mxGeometry relative="1" as="geometry" />
        </mxCell>
        <mxCell id="QD5NwU34mhIFS8gVQGoK-45" value="" style="rounded=0;whiteSpace=wrap;html=1;fillColor=#d5e8d4;strokeColor=#82b366;" vertex="1" parent="1">
          <mxGeometry x="760" y="40" width="83" height="40" as="geometry" />
        </mxCell>
        <mxCell id="QD5NwU34mhIFS8gVQGoK-48" value="this is a line 1" style="rounded=0;whiteSpace=wrap;html=1;fillColor=#fff2cc;strokeColor=#d6b656;fontStyle=1;fontSize=12;" vertex="1" parent="1">
          <mxGeometry x="901" y="70" width="100" height="30" as="geometry" />
        </mxCell>
        <mxCell id="QD5NwU34mhIFS8gVQGoK-50" value="5aabe91" style="rounded=0;whiteSpace=wrap;html=1;fillColor=#6a00ff;strokeColor=#3700CC;fontStyle=1;fontSize=15;fontColor=#ffffff;" vertex="1" parent="1">
          <mxGeometry x="381" y="-110" width="156" height="60" as="geometry" />
        </mxCell>
        <mxCell id="QD5NwU34mhIFS8gVQGoK-55" style="edgeStyle=orthogonalEdgeStyle;rounded=0;orthogonalLoop=1;jettySize=auto;html=1;entryX=0;entryY=0.5;entryDx=0;entryDy=0;" edge="1" parent="1" source="QD5NwU34mhIFS8gVQGoK-54" target="QD5NwU34mhIFS8gVQGoK-50">
          <mxGeometry relative="1" as="geometry" />
        </mxCell>
        <mxCell id="QD5NwU34mhIFS8gVQGoK-54" value="dev4" style="rounded=0;whiteSpace=wrap;html=1;fillColor=#1ba1e2;strokeColor=#006EAF;fontStyle=1;fontColor=#ffffff;" vertex="1" parent="1">
          <mxGeometry x="240" y="-160" width="80" height="40" as="geometry" />
        </mxCell>
        <mxCell id="QD5NwU34mhIFS8gVQGoK-59" style="edgeStyle=orthogonalEdgeStyle;rounded=0;orthogonalLoop=1;jettySize=auto;html=1;" edge="1" parent="1" source="QD5NwU34mhIFS8gVQGoK-58" target="is7U0yohfw3_wu6Jb7FG-9">
          <mxGeometry relative="1" as="geometry" />
        </mxCell>
        <mxCell id="QD5NwU34mhIFS8gVQGoK-58" value="mybranch" style="rounded=0;whiteSpace=wrap;html=1;fillColor=#1ba1e2;strokeColor=#006EAF;fontStyle=1;fontColor=#ffffff;" vertex="1" parent="1">
          <mxGeometry x="240" y="610" width="80" height="40" as="geometry" />
        </mxCell>
      </root>
    </mxGraphModel>
  </diagram>
  <diagram id="LAQ5MUAB10Mw4znPI4Zs" name="Page-4">
    <mxGraphModel dx="857" dy="571" grid="1" gridSize="10" guides="1" tooltips="1" connect="1" arrows="1" fold="1" page="1" pageScale="1" pageWidth="827" pageHeight="1169" math="0" shadow="0">
      <root>
        <mxCell id="0" />
        <mxCell id="1" parent="0" />
        <mxCell id="1GA5IE-6_xFvdCgVhYoe-7" style="edgeStyle=orthogonalEdgeStyle;rounded=0;orthogonalLoop=1;jettySize=auto;html=1;" edge="1" parent="1" source="1GA5IE-6_xFvdCgVhYoe-1" target="1GA5IE-6_xFvdCgVhYoe-6">
          <mxGeometry relative="1" as="geometry" />
        </mxCell>
        <mxCell id="1GA5IE-6_xFvdCgVhYoe-1" value="" style="rounded=0;whiteSpace=wrap;html=1;" vertex="1" parent="1">
          <mxGeometry x="280" y="360" width="190" height="150" as="geometry" />
        </mxCell>
        <mxCell id="1GA5IE-6_xFvdCgVhYoe-2" value="Local Repo" style="rounded=0;whiteSpace=wrap;html=1;fillColor=#dae8fc;strokeColor=#6c8ebf;" vertex="1" parent="1">
          <mxGeometry x="315" y="440" width="120" height="50" as="geometry" />
        </mxCell>
        <mxCell id="1GA5IE-6_xFvdCgVhYoe-4" value="" style="rounded=0;whiteSpace=wrap;html=1;" vertex="1" parent="1">
          <mxGeometry x="600" y="110" width="160" height="90" as="geometry" />
        </mxCell>
        <mxCell id="1GA5IE-6_xFvdCgVhYoe-5" value="Remote Repo" style="rounded=0;whiteSpace=wrap;html=1;fillColor=#dae8fc;strokeColor=#6c8ebf;" vertex="1" parent="1">
          <mxGeometry x="622" y="150" width="120" height="30" as="geometry" />
        </mxCell>
        <mxCell id="1GA5IE-6_xFvdCgVhYoe-8" style="edgeStyle=orthogonalEdgeStyle;rounded=0;orthogonalLoop=1;jettySize=auto;html=1;entryX=0.5;entryY=1;entryDx=0;entryDy=0;" edge="1" parent="1" source="1GA5IE-6_xFvdCgVhYoe-6" target="1GA5IE-6_xFvdCgVhYoe-4">
          <mxGeometry relative="1" as="geometry" />
        </mxCell>
        <mxCell id="1GA5IE-6_xFvdCgVhYoe-6" value="internet" style="ellipse;shape=cloud;whiteSpace=wrap;html=1;" vertex="1" parent="1">
          <mxGeometry x="620" y="260" width="120" height="80" as="geometry" />
        </mxCell>
        <mxCell id="1GA5IE-6_xFvdCgVhYoe-9" value="GitHub, GitLab, BitBucket" style="text;html=1;strokeColor=none;fillColor=none;align=center;verticalAlign=middle;whiteSpace=wrap;rounded=0;fontStyle=1;fontSize=16;" vertex="1" parent="1">
          <mxGeometry x="600" y="60" width="160" height="40" as="geometry" />
        </mxCell>
      </root>
    </mxGraphModel>
  </diagram>
</mxfile>
